<svg xmlns="http://www.w3.org/2000/svg" viewBox="0 0 26 26"><g transform="translate(-1274 -4594)"><g transform="translate(1274 4594)" fill="none" stroke="#000" stroke-width="1"><circle cx="13" cy="13" r="13" stroke="none"/><circle cx="13" cy="13" r="12.5" fill="none"/></g><g transform="translate(1280.136 4601)"><path d="M12.186,57.75H1.7a1.7,1.7,0,0,0-1.7,1.7v7.168a1.7,1.7,0,0,0,1.7,1.7H12.183a1.7,1.7,0,0,0,1.7-1.7V59.45A1.7,1.7,0,0,0,12.186,57.75Zm.922,8.866a.923.923,0,0,1-.922.922H1.7a.923.923,0,0,1-.922-.922V59.45a.923.923,0,0,1,.922-.922H12.183a.923.923,0,0,1,.922.922v7.165Z" transform="translate(0 -57.75)"/><path d="M62.9,112.626l3.395-3.044a.388.388,0,0,0-.52-.577l-4.681,4.2-.913-.816s-.006-.006-.006-.009a.574.574,0,0,0-.063-.055L56.4,109a.389.389,0,1,0-.517.58l3.435,3.07-3.42,3.2a.389.389,0,0,0-.017.549.4.4,0,0,0,.284.123.389.389,0,0,0,.264-.1l3.472-3.248.942.841a.387.387,0,0,0,.517,0l.968-.867,3.452,3.28a.389.389,0,0,0,.549-.014.389.389,0,0,0-.014-.549Z" transform="translate(-54.151 -107.433)"/></g></g></svg>