<svg xmlns="http://www.w3.org/2000/svg" width="42" height="42"><g data-name="Group 1180"><g data-name="Group 34" transform="translate(44.694 3.694)"><circle data-name="Ellipse 31" cx="21" cy="21" r="21" transform="translate(-44.694 -3.694)" fill="#ffbc03"/><path d="M-19.07 28.006a13.643 13.643 0 006.3 1.074c1.763-.255.335-1.007.335-1.007-1.176-.833-2.1-1.21-2.413-3.2a11.822 11.822 0 10-4.219 3.13z" data-name="Group 32"/><g data-name="Group 33"><path data-name="path-3" d="M-19.07 28.006a13.643 13.643 0 006.3 1.074c1.763-.255.335-1.007.335-1.007-1.176-.833-2.1-1.21-2.413-3.2a11.822 11.822 0 10-4.219 3.13z" fill="#fff"/></g><path d="M-23.409 19.092a24.5 24.5 0 003.186-1.678c1.2-.533 1.753-.85 1.845-.839 1.06-.979.592-1.794-1.845-.671l-6.037 3.188c-2.606 1.24-4.62 2.006-4.36 2.685.066.059.42.5.839.5-.023-.008.23.183 2.683-1.51zm-7.211-1.007c-.305-.256.366-.909 1.677-1.342 1.21-.69 5.381-2.7 6.373-3.188 1.364-.721 4.091-1.7 3.522-.839a17.636 17.636 0 01-4.863 3.02c-1.423.769-6.13 2.563-6.709 2.349zm14.255.168c.54.3-1.353 1.369-2.851 2.349-1.622 1.205-6.35 3.418-6.708 3.188-.326-.393.791-1.4 2.683-2.349 1.819-.985 6.162-3.412 6.876-3.188zm-13.584-3.691c-.228-.325.938-1.5 2.683-2.349 1.389-.773 5.173-2.531 4.863-1.678a26.671 26.671 0 01-3.186 2.349c.023-.082-1.656.969-3.186 1.678-.902.615-1.136.04-1.174-.001z" fill="#382e2c"/></g></g></svg>