<svg xmlns="http://www.w3.org/2000/svg" width="175.521" height="55"><g data-name="Group 1181"><path data-name="Rectangle 71" fill="#ffbc00" d="M1 51h139v4H1z"/><path d="M19.836 6.65a2.382 2.382 0 01-1.77.764 2.422 2.422 0 01-1.762-.72 2.346 2.346 0 01-.734-1.735 2.309 2.309 0 01.335-1.23 3.639 3.639 0 00.412-1.08q0-.591-.781-.954a9.341 9.341 0 00-4.013-.869q-3.549 0-4.32 2.674a30.248 30.248 0 00-.619 7.4q0 6.159.619 7.524a4.3 4.3 0 004.32 2.546 11.8 11.8 0 008.772-3.762l.591.59a12.316 12.316 0 01-3.18 2.464 12.688 12.688 0 01-6.182 1.536q-5.6 0-8.556-2.792T0 10.9q0-5.3 3-8.106Q5.978 0 11.523 0a14.006 14.006 0 015.952 1.131q3.1 1.449 3.1 3.743a2.466 2.466 0 01-.739 1.776zm16.5 2.713q-6.825 0-6.824 6.292 0 5.312 4.424 5.313a7.725 7.725 0 005.024-1.7q-.085-2.516-.087-5.273v-4.63zm-10.09-6.614A6.2 6.2 0 0129.787.505a13.39 13.39 0 013.651-.5q12.022 0 12.021 10.728v7.035q0 2.833 3.292 2.833v.827H40.52q-.413 0-.866-.675c-.3-.45-.507-.64-.617-.573a8.043 8.043 0 01-5.1 1.619q-11.008 0-11.008-6.14 0-7.12 14.094-7.119h1.851V6.685q0-5.856-5.435-5.855a13.426 13.426 0 00-2.915.32q-.934.2-.935.684a1.259 1.259 0 00.439.785 2.333 2.333 0 01.736 1.753 2.377 2.377 0 01-.736 1.755 2.556 2.556 0 01-3.567 0 2.409 2.409 0 01-.747-1.764 2.709 2.709 0 01.533-1.615zm34.417 10.577h2.47q4.938 0 4.937-6.223 0-5.9-4.937-5.9h-2.47zM63.133.38q5.161 0 8.051 2 3.475 2.4 3.472 4.891 0 4.245-6.114 6.621a3.542 3.542 0 012.2.659l3.824 5.414q.454.644 2.554.643v.817a30.342 30.342 0 01-4.681.372 6.808 6.808 0 01-6.249-3.762l-2.213-3.88h-3.32v3.617q0 2.836 3.292 2.836v.827H50.788v-.827q3.291 0 3.293-2.836V3.677q-.12-2.472-3.293-2.471V.379zm28.412 8.984q-6.825 0-6.826 6.292 0 5.312 4.425 5.313a7.724 7.724 0 005.025-1.7q-.087-2.516-.086-5.273v-4.63zM81.453 2.75A6.2 6.2 0 0185 .5a13.39 13.39 0 013.651-.5q12.024 0 12.021 10.728v7.035q0 2.833 3.293 2.833v.827h-8.237c-.273 0-.563-.225-.864-.675s-.509-.64-.619-.573a8.041 8.041 0 01-5.1 1.619q-11.008 0-11.008-6.14 0-7.12 14.095-7.119h1.852V6.68q0-5.856-5.437-5.855a13.436 13.436 0 00-2.915.32q-.934.2-.933.684a1.262 1.262 0 00.436.785 2.33 2.33 0 01.736 1.753 2.375 2.375 0 01-.736 1.755 2.556 2.556 0 01-3.567 0 2.409 2.409 0 01-.745-1.764 2.711 2.711 0 01.531-1.611zm43.351 3.9a2.388 2.388 0 01-1.771.764 2.425 2.425 0 01-1.762-.72 2.345 2.345 0 01-.733-1.735 2.314 2.314 0 01.335-1.23 3.686 3.686 0 00.411-1.08q0-.591-.781-.954a9.337 9.337 0 00-4.011-.869q-3.549 0-4.321 2.674a30.318 30.318 0 00-.617 7.4q0 6.159.617 7.524a4.3 4.3 0 004.321 2.546 11.788 11.788 0 008.77-3.762l.591.59a12.316 12.316 0 01-3.18 2.464 12.68 12.68 0 01-6.181 1.536q-5.6 0-8.557-2.792T104.97 10.9q0-5.3 3-8.106Q110.945 0 116.493 0a14 14 0 015.95 1.131q3.1 1.449 3.1 3.743a2.465 2.465 0 01-.742 1.776m16.5 2.713q-6.825 0-6.826 6.292 0 5.312 4.425 5.313a7.722 7.722 0 005.024-1.7q-.086-2.516-.085-5.273v-4.63zm-10.092-6.614a6.21 6.21 0 013.539-2.244 13.416 13.416 0 013.652-.5q12.024 0 12.021 10.728v7.035q0 2.833 3.293 2.833v.827h-8.232c-.273 0-.563-.225-.864-.675s-.508-.64-.619-.573a8.04 8.04 0 01-5.1 1.619q-11.009 0-11.01-6.14 0-7.12 14.1-7.119h1.852V6.685q0-5.856-5.437-5.855a13.413 13.413 0 00-2.913.32c-.625.136-.935.363-.935.684a1.26 1.26 0 00.437.785 2.337 2.337 0 01.737 1.753 2.381 2.381 0 01-.737 1.755 2.557 2.557 0 01-3.568 0 2.417 2.417 0 01-.746-1.764 2.712 2.712 0 01.532-1.611zM173.055.321l.453 5.71-.84.085a6.334 6.334 0 00-1.235-2.86 5.28 5.28 0 00-2.225-1.733 8.693 8.693 0 00-3.647-.7q-4.073 0-4.075 2.657a2.765 2.765 0 001.125 2.235 11.949 11.949 0 002.34 1.374l6.173 2.835q4.381 2.023 4.391 5.6 0 6.268-10.905 6.268a10.206 10.206 0 01-2.874-.4 12.852 12.852 0 01-3-1.315 2.051 2.051 0 00-1.021-.363q-.967 0-1.141 1.8l-.822-.085.694-6.073.842.085a6.388 6.388 0 003.66 4.714 7.571 7.571 0 003.662.818q5.219 0 5.219-2.824 0-1.925-2.984-3.442l-5.8-2.588a8.368 8.368 0 01-3.3-2.388 5.072 5.072 0 01-1.063-3.162 5.526 5.526 0 012.529-4.858 11.088 11.088 0 016.353-1.7 9.926 9.926 0 013.4.5 7.019 7.019 0 002.331.515q.892 0 1-.614zM7.028 43.73a5.487 5.487 0 005.546-4.052l-1.542-.569a4 4 0 01-4 3.021c-2.286 0-4.465-1.688-4.465-4.976s2.18-4.958 4.465-4.958a3.723 3.723 0 013.916 2.968l1.613-.569a5.338 5.338 0 00-5.529-4 6.575 6.575 0 000 13.132zm20.675-.267v-12.6h-1.737v5.384h-6.415v-5.384h-1.737v12.6h1.737v-5.6h6.415v5.6zm12.631 0h2.02l-2.995-5.278a3.524 3.524 0 003.048-3.572 3.643 3.643 0 00-3.845-3.75h-4.731v12.6h1.754V38.31h1.878zm-4.749-6.717c-.665-1.08 0-4.318 0-4.318h2.658a2.169 2.169 0 110 4.318s-1.993 1.08-2.657.001zm13.038.409c0-3.287 2.2-4.958 4.536-4.958s4.536 1.67 4.536 4.958-2.2 4.976-4.536 4.976-4.536-1.688-4.536-4.976zm-1.772 0a6.313 6.313 0 106.309-6.557 6.286 6.286 0 00-6.308 6.557zm28.277 6.308v-12.6h-1.737v9.667l-6.273-9.667h-2.321v12.6h1.737V33.192l6.787 10.271zm7.9 0v-12.6h-1.772v12.6zm11.568.267a5.487 5.487 0 005.546-4.052l-1.542-.569a4 4 0 01-4 3.021c-2.286 0-4.465-1.688-4.465-4.976s2.18-4.958 4.465-4.958a3.723 3.723 0 013.916 2.968l1.613-.569a5.338 5.338 0 00-5.529-4 6.575 6.575 0 000 13.132zm18.46-.267v-1.635h-5.935V30.865h-1.737v12.6zm12.613 0v-1.617h-5.9V37.99h5.351v-1.635h-5.351v-3.874h5.9v-1.617h-7.637v12.6zm13.605-9.738a3.96 3.96 0 00-4.252-3.127 4.009 4.009 0 00-4.146 3.75 3.482 3.482 0 003.066 3.448l1.79.391a2.05 2.05 0 011.878 1.955c0 1.1-.851 2.008-2.587 2.008a2.858 2.858 0 01-3.012-2.7l-1.666.533a4.363 4.363 0 004.7 3.75c2.676 0 4.341-1.777 4.341-3.732 0-1.759-1.17-3.074-3.26-3.536l-1.878-.409a1.823 1.823 0 01-1.613-1.83 2.224 2.224 0 012.428-2.1 2.551 2.551 0 012.658 2.15z" fill="#2c2523"/></g></svg>